# xmcd
# 
# Track frame offsets:
#     150
#     28398
#     57389
#     67563
#     80379
#     93057
#     104104
#     117436
#     128685
#     142857
#     153103
#     165937
#     179703
#     192236
#     204863
#     218645
# 
# Disc length: 3322
# 
# Revision: 2
# Processed by: cddbd v1.5.2PL0 Copyright (c) Steve Scherf et al.
# Submitted via: fre:ac v1.0.27
# 
DISCID=d00cf810
DTITLE=Ray Charles - Hall Of Fame - Ray Charles
DYEAR=2004
DGENRE=Soul
TTITLE0=I Got A Woman
TTITLE1=What'd I Say
TTITLE2=I'm Movin' On
TTITLE3=Heartbreaker
TTITLE4=Can Anyone Ask For More
TTITLE5=A Sentimental Blues
TTITLE6=Alone In The Night
TTITLE7=Let's Have A Ball
TTITLE8=Kiss Me Baby
TTITLE9=Ain't That Fine
TTITLE10=Baby, Won't You Please Come Home
TTITLE11=I'm Going Down To The River
TTITLE12=I'm Just A Lonely Boy
TTITLE13=You'll Always Miss The Water
TTITLE14=Late In The Evening Blues
TTITLE15=Georgia On My Mind
EXTD=
EXTT0=
EXTT1=
EXTT2=
EXTT3=
EXTT4=
EXTT5=
EXTT6=
EXTT7=
EXTT8=
EXTT9=
EXTT10=
EXTT11=
EXTT12=
EXTT13=
EXTT14=
EXTT15=
PLAYORDER=
